HIERARCHY
ROOT Hips
{
	OFFSET 0.000000 83.214638 0.000000
	CHANNELS 6 Xposition Yposition Zposition Xrotation Yrotation Zrotation
	JOINT Pelvis
	{
		OFFSET 0.000000 0.000000 0.000000
		CHANNELS 3 Xrotation Yrotation Zrotation
		JOINT LeftUpLeg
		{
			OFFSET 8.479700 -4.795502 -0.379100
			CHANNELS 3 Xrotation Yrotation Zrotation
			JOINT LeftLeg
			{
				OFFSET 0.024144 -32.555107 0.112900
				CHANNELS 3 Xrotation Yrotation Zrotation
				JOINT LeftFoot
				{
					OFFSET -0.024144 -32.638630 -3.012600
					CHANNELS 3 Xrotation Yrotation Zrotation
					JOINT LeftToeBase
					{
						OFFSET 0.970200 -13.225400 11.864200
						CHANNELS 3 Xrotation Yrotation Zrotation
						End Site
						{
							OFFSET 0.000000 12.319262 0.000000
						}
					}
					JOINT LFootTongue
					{
						OFFSET 1.142400 -1.059800 6.665200
						CHANNELS 3 Xrotation Yrotation Zrotation
						End Site
						{
							OFFSET 0.000000 12.319262 0.000000
						}
					}
				}
				JOINT LeftPantLeg
				{
					OFFSET 0.918482 -16.533964 -2.284700
					CHANNELS 3 Xrotation Yrotation Zrotation
					End Site
					{
						OFFSET 0.350399 24.744368 0.000000
					}
				}
			}
		}
		JOINT RightUpLeg
		{
			OFFSET -8.479700 -4.795502 -0.379100
			CHANNELS 3 Xrotation Yrotation Zrotation
			JOINT RightLeg
			{
				OFFSET -0.023144 -32.555092 0.112900
				CHANNELS 3 Xrotation Yrotation Zrotation
				JOINT RightFoot
				{
					OFFSET 0.023144 -32.638641 -3.012700
					CHANNELS 3 Xrotation Yrotation Zrotation
					JOINT RightToeBase
					{
						OFFSET -0.970200 -13.225400 11.864200
						CHANNELS 3 Xrotation Yrotation Zrotation
						End Site
						{
							OFFSET 0.000000 12.319244 0.000000
						}
					}
					JOINT RFootTongue
					{
						OFFSET -1.142200 -1.059800 6.665200
						CHANNELS 3 Xrotation Yrotation Zrotation
						End Site
						{
							OFFSET 0.000000 12.319243 0.000000
						}
					}
				}
				JOINT RightPantLeg
				{
					OFFSET -0.919482 -16.533978 -2.284800
					CHANNELS 3 Xrotation Yrotation Zrotation
					End Site
					{
						OFFSET -0.350400 24.744419 0.000000
					}
				}
			}
		}
	}
	JOINT Spine
	{
		OFFSET 0.000000 7.722000 1.166200
		CHANNELS 3 Xrotation Yrotation Zrotation
		JOINT Spine1
		{
			OFFSET 0.000000 12.024101 0.248800
			CHANNELS 3 Xrotation Yrotation Zrotation
			JOINT Spine2
			{
				OFFSET 0.000000 11.502998 -0.491200
				CHANNELS 3 Xrotation Yrotation Zrotation
				JOINT Neck
				{
					OFFSET 0.000000 18.430702 -3.123100
					CHANNELS 3 Xrotation Yrotation Zrotation
					JOINT Head
					{
						OFFSET 0.000000 9.051102 1.034000
						CHANNELS 3 Xrotation Yrotation Zrotation
						JOINT HairB
						{
							OFFSET 0.208400 24.786102 24.822300
							CHANNELS 3 Xrotation Yrotation Zrotation
							End Site
							{
								OFFSET 0.000000 32.263779 0.000000
							}
						}
						JOINT HairA
						{
							OFFSET -7.081100 24.428299 23.196600
							CHANNELS 3 Xrotation Yrotation Zrotation
							End Site
							{
								OFFSET 0.000000 32.263779 0.000000
							}
						}
						JOINT Hat
						{
							OFFSET 16.728800 15.048294 -15.439601
							CHANNELS 3 Xrotation Yrotation Zrotation
							End Site
							{
								OFFSET 0.000000 32.263779 0.000000
							}
						}
					}
				}
				JOINT LeftShoulder
				{
					OFFSET 6.197800 13.665199 -4.064700
					CHANNELS 3 Xrotation Yrotation Zrotation
					JOINT LeftArm
					{
						OFFSET 7.778100 -0.187103 -1.709300
						CHANNELS 3 Xrotation Yrotation Zrotation
						JOINT LeftForeArm
						{
							OFFSET 22.049376 0.000000 0.000000
							CHANNELS 3 Xrotation Yrotation Zrotation
							JOINT LeftHand
							{
								OFFSET 23.009392 0.000000 0.000000
								CHANNELS 3 Xrotation Yrotation Zrotation
								JOINT LeftHandThumb1
								{
									OFFSET 3.507191 -2.063065 3.133727
									CHANNELS 3 Xrotation Yrotation Zrotation
									JOINT LeftHandThumb2
									{
										OFFSET 3.101337 -1.790558 1.790558
										CHANNELS 3 Xrotation Yrotation Zrotation
										JOINT LeftHandThumb3
										{
											OFFSET 3.058640 -1.765907 1.765906
											CHANNELS 3 Xrotation Yrotation Zrotation
											End Site
											{
												OFFSET -0.415260 3.926476 -0.049563
											}
										}
									}
								}
								JOINT LeftHandIndex1
								{
									OFFSET 11.334419 -0.901459 3.706815
									CHANNELS 3 Xrotation Yrotation Zrotation
									JOINT LeftHandIndex2
									{
										OFFSET 3.283112 0.000000 0.000000
										CHANNELS 3 Xrotation Yrotation Zrotation
										JOINT LeftHandIndex3
										{
											OFFSET 3.323853 0.000000 0.000000
											CHANNELS 3 Xrotation Yrotation Zrotation
											End Site
											{
												OFFSET -1.135597 3.097809 0.402452
											}
										}
									}
								}
								JOINT LeftHandMiddle1
								{
									OFFSET 11.335861 0.000000 0.000000
									CHANNELS 3 Xrotation Yrotation Zrotation
									JOINT LeftHandMiddle2
									{
										OFFSET 3.410492 0.000000 0.000000
										CHANNELS 3 Xrotation Yrotation Zrotation
										JOINT LeftHandMiddle3
										{
											OFFSET 3.312172 0.000000 0.000000
											CHANNELS 3 Xrotation Yrotation Zrotation
											End Site
											{
												OFFSET -1.150200 3.080154 0.400270
											}
										}
									}
								}
								JOINT LeftHandRing1
								{
									OFFSET 11.514786 -0.013176 -3.003090
									CHANNELS 3 Xrotation Yrotation Zrotation
									JOINT LeftHandRing2
									{
										OFFSET 3.053307 0.000000 0.000000
										CHANNELS 3 Xrotation Yrotation Zrotation
										JOINT LeftHandRing3
										{
											OFFSET 3.295807 0.000000 0.000000
											CHANNELS 3 Xrotation Yrotation Zrotation
											End Site
											{
												OFFSET -1.281006 3.013344 0.375733
											}
										}
									}
								}
								JOINT LeftHandPinky1
								{
									OFFSET 10.518692 -0.960396 -5.730441
									CHANNELS 3 Xrotation Yrotation Zrotation
									JOINT LeftHandPinky2
									{
										OFFSET 2.861649 0.000000 0.000000
										CHANNELS 3 Xrotation Yrotation Zrotation
										JOINT LeftHandPinky3
										{
											OFFSET 2.863380 0.000000 0.000000
											CHANNELS 3 Xrotation Yrotation Zrotation
											End Site
											{
												OFFSET -0.843597 2.711159 0.369971
											}
										}
									}
								}
							}
							JOINT LSleeve
							{
								OFFSET 6.676277 -0.344902 -1.011730
								CHANNELS 3 Xrotation Yrotation Zrotation
								End Site
								{
									OFFSET 0.000000 14.885353 0.000000
								}
							}
						}
					}
				}
				JOINT RightShoulder
				{
					OFFSET -6.197800 13.665199 -4.064700
					CHANNELS 3 Xrotation Yrotation Zrotation
					JOINT RightArm
					{
						OFFSET -7.778100 -0.187103 -1.709300
						CHANNELS 3 Xrotation Yrotation Zrotation
						JOINT RightForeArm
						{
							OFFSET -22.049376 0.000000 0.000000
							CHANNELS 3 Xrotation Yrotation Zrotation
							JOINT RightHand
							{
								OFFSET -23.009392 0.000000 0.000000
								CHANNELS 3 Xrotation Yrotation Zrotation
								JOINT RightHandThumb1
								{
									OFFSET -3.507191 -2.063065 3.133727
									CHANNELS 3 Xrotation Yrotation Zrotation
									JOINT RightHandThumb2
									{
										OFFSET -3.101337 -1.790558 1.790558
										CHANNELS 3 Xrotation Yrotation Zrotation
										JOINT RightHandThumb3
										{
											OFFSET -3.058640 -1.765907 1.765906
											CHANNELS 3 Xrotation Yrotation Zrotation
											End Site
											{
												OFFSET 0.415260 3.926476 -0.049563
											}
										}
									}
								}
								JOINT RightHandIndex1
								{
									OFFSET -11.334419 -0.901459 3.706815
									CHANNELS 3 Xrotation Yrotation Zrotation
									JOINT RightHandIndex2
									{
										OFFSET -3.283112 0.000000 0.000000
										CHANNELS 3 Xrotation Yrotation Zrotation
										JOINT RightHandIndex3
										{
											OFFSET -3.323853 0.000000 0.000000
											CHANNELS 3 Xrotation Yrotation Zrotation
											End Site
											{
												OFFSET 1.135597 3.097809 0.402452
											}
										}
									}
								}
								JOINT RightHandMiddle1
								{
									OFFSET -11.335861 0.000000 0.000000
									CHANNELS 3 Xrotation Yrotation Zrotation
									JOINT RightHandMiddle2
									{
										OFFSET -3.410492 0.000000 0.000000
										CHANNELS 3 Xrotation Yrotation Zrotation
										JOINT RightHandMiddle3
										{
											OFFSET -3.312172 0.000000 0.000000
											CHANNELS 3 Xrotation Yrotation Zrotation
											End Site
											{
												OFFSET 1.150200 3.080154 0.400270
											}
										}
									}
								}
								JOINT RightHandRing1
								{
									OFFSET -11.514786 -0.013176 -3.003090
									CHANNELS 3 Xrotation Yrotation Zrotation
									JOINT RightHandRing2
									{
										OFFSET -3.053307 0.000000 0.000000
										CHANNELS 3 Xrotation Yrotation Zrotation
										JOINT RightHandRing3
										{
											OFFSET -3.295807 0.000000 0.000000
											CHANNELS 3 Xrotation Yrotation Zrotation
											End Site
											{
												OFFSET 1.281006 3.013344 0.375733
											}
										}
									}
								}
								JOINT RightHandPinky1
								{
									OFFSET -10.518692 -0.960396 -5.730441
									CHANNELS 3 Xrotation Yrotation Zrotation
									JOINT RightHandPinky2
									{
										OFFSET -2.861649 0.000000 0.000000
										CHANNELS 3 Xrotation Yrotation Zrotation
										JOINT RightHandPinky3
										{
											OFFSET -2.863380 0.000000 0.000000
											CHANNELS 3 Xrotation Yrotation Zrotation
											End Site
											{
												OFFSET 0.843597 2.711159 0.369971
											}
										}
									}
								}
							}
							JOINT RSleeve
							{
								OFFSET -6.676277 -0.344902 -1.011730
								CHANNELS 3 Xrotation Yrotation Zrotation
								End Site
								{
									OFFSET 0.000000 14.885353 0.000000
								}
							}
						}
					}
				}
				JOINT Backpack
				{
					OFFSET 0.000000 -2.471497 36.677502
					CHANNELS 3 Xrotation Yrotation Zrotation
					End Site
					{
						OFFSET 0.000000 20.427315 0.000000
					}
				}
				JOINT Hood
				{
					OFFSET 0.000000 18.754097 -10.431000
					CHANNELS 3 Xrotation Yrotation Zrotation
					JOINT Hood1
					{
						OFFSET 0.000000 -5.011002 -7.685901
						CHANNELS 3 Xrotation Yrotation Zrotation
						End Site
						{
							OFFSET 0.000000 9.175140 0.000000
						}
					}
				}
				JOINT LHoodieString
				{
					OFFSET 5.250500 16.397697 3.089900
					CHANNELS 3 Xrotation Yrotation Zrotation
					JOINT LHoodieString1
					{
						OFFSET 0.257700 -6.364304 3.694600
						CHANNELS 3 Xrotation Yrotation Zrotation
						JOINT LHoodieString2
						{
							OFFSET 0.000000 -9.643799 2.679100
							CHANNELS 3 Xrotation Yrotation Zrotation
							End Site
							{
								OFFSET 0.000000 10.009018 0.000000
							}
						}
					}
				}
				JOINT RHoodieString
				{
					OFFSET -5.250500 16.397697 3.089900
					CHANNELS 3 Xrotation Yrotation Zrotation
					JOINT RHoodieString1
					{
						OFFSET -0.257700 -6.364304 3.694600
						CHANNELS 3 Xrotation Yrotation Zrotation
						JOINT RHoodieString2
						{
							OFFSET 0.000000 -9.643799 2.679100
							CHANNELS 3 Xrotation Yrotation Zrotation
							End Site
							{
								OFFSET 0.000000 10.009018 0.000000
							}
						}
					}
				}
			}
			JOINT LBackpack_Strap
			{
				OFFSET 15.223200 -7.719803 -6.610900
				CHANNELS 3 Xrotation Yrotation Zrotation
				End Site
				{
					OFFSET 0.000000 16.040596 0.000000
				}
			}
			JOINT RBackpack_Strap
			{
				OFFSET -15.223000 -7.719803 -6.610900
				CHANNELS 3 Xrotation Yrotation Zrotation
				End Site
				{
					OFFSET 0.000000 16.040596 0.000000
				}
			}
		}
	}
	JOINT BoyFacialAnim_Joint
	{
		OFFSET 1.000000 -82.208099 -1.550900
		CHANNELS 3 Xrotation Yrotation Zrotation
		End Site
		{
			OFFSET 0.000000 30.012791 0.000000
		}
	}
}
MOTION
Frames: 5
Frame Time: 0.033333
2.118073 81.497505 63.712887 0.534550 -21.139116 2.938373 -0.000000 0.000002 -0.000000 -4.464532 9.813302 -2.775603 17.701584 7.640982 -0.151172 -11.477433 16.528037 -2.048396 0.000000 0.000000 -0.000000 0.000000 0.000000 -0.000000 0.000000 -0.000000 0.000000 -26.782538 -5.658979 -2.442300 27.887444 -0.284359 1.002765 -14.361233 -20.375296 -1.233841 -0.000001 -0.000001 -0.000001 -0.000001 -0.000001 -0.000001 -0.000000 -0.000001 -0.000000 1.531631 -0.959799 -0.765354 3.062143 -1.891540 -1.066977 3.062143 -1.891533 -1.066977 1.162906 12.679306 0.956656 -14.420799 6.690187 0.588703 0.000000 -0.000000 0.000000 0.000000 -0.000000 0.000000 0.000000 -0.000000 0.000000 -13.664347 2.039403 -8.963937 -0.416245 -23.505864 -65.216367 -21.503396 -60.292102 -18.002912 -103.091576 -20.233599 16.160347 3.566528 3.231710 -3.686669 1.152128 4.338496 1.966096 0.000001 0.000001 -0.000002 8.501898 6.747381 -29.153249 -14.268990 -8.303972 -76.512537 0.000002 0.000000 -0.000003 3.607008 0.261736 -59.105240 -5.382977 -6.683177 -55.992931 0.000002 0.000000 -0.000003 -2.734187 6.137931 -69.271048 0.981149 -3.057334 -53.654988 -0.000001 0.000000 -0.000000 -13.842531 3.504984 -81.974694 3.265050 -7.073732 -51.120506 -0.000000 -0.000001 -0.000000 0.000001 -0.000001 0.000001 8.251471 -1.056654 6.309844 15.736454 45.667495 42.922866 -26.412159 107.087032 18.847328 -38.756484 -22.148430 4.229120 15.241769 -4.583987 16.912655 11.430690 3.982524 -20.387232 0.000001 -0.000001 -0.000002 2.628597 -0.916137 4.888122 -1.785904 -0.099519 22.316682 -0.000001 -0.000001 0.000005 3.697441 5.992862 50.030862 -9.360028 -1.099792 110.742474 0.000001 0.000001 -0.000000 -9.686878 -5.840012 56.248616 -4.713467 8.959801 96.816723 -0.000000 -0.000000 0.000004 -16.029916 -0.655281 70.950687 -3.461400 14.022010 79.759247 0.000003 0.000002 -0.000001 0.000003 -0.000001 0.000002 -0.000000 0.000002 -0.000000 -0.000000 0.000002 -0.000000 -0.000000 0.000002 -0.000000 -0.000000 0.000002 -0.000000 -0.000000 0.000002 0.000000 -0.000000 0.000000 0.000000 -0.000000 0.000002 -0.000000 -0.000000 0.000002 0.000000 -0.000000 0.000000 0.000000 -0.000000 0.000003 -0.000000 -0.000000 0.000003 -0.000000 -0.000000 0.000002 -0.000000 
1.517959 81.394135 65.161201 0.490264 -21.136782 3.011047 -0.000000 0.000001 -0.000000 -2.412820 10.578637 -2.806612 16.624129 7.699811 -0.097289 -12.169580 15.609530 -2.539664 -0.000000 0.000000 -0.000000 -0.000000 0.000000 -0.000000 -0.000001 0.000000 -0.000000 -26.142204 -5.457525 -2.165368 26.890375 -0.244995 0.974063 -11.845693 -22.014048 -2.556831 0.000000 0.000001 -0.000000 0.000000 0.000001 -0.000000 -0.000000 0.000002 -0.000000 1.498471 -1.012475 -0.696236 2.997075 -2.000707 -0.924161 2.997078 -2.000718 -0.924160 0.973965 13.108932 0.877304 -14.206794 7.198923 0.459020 -0.000000 -0.000001 0.000000 -0.000000 -0.000001 0.000000 -0.000000 -0.000001 0.000000 -13.849075 2.243689 -8.573412 -0.042693 -23.384630 -65.693504 -21.601947 -60.391453 -18.235792 -103.658701 -20.694693 15.457671 3.601893 3.291924 -3.743353 1.155818 4.337185 1.963296 -0.000001 0.000002 0.000003 8.501443 6.741592 -29.138253 -14.268083 -8.305706 -76.498822 -0.000001 0.000001 -0.000007 3.632292 0.258997 -58.912834 -5.347401 -6.683809 -55.809196 0.000000 -0.000001 0.000002 -2.693153 6.139181 -69.083552 0.989605 -3.037733 -53.463135 0.000001 -0.000000 -0.000002 -13.772052 3.495924 -81.796016 3.279738 -7.039248 -50.929869 -0.000000 0.000001 -0.000000 -0.000001 0.000002 0.000003 8.418129 -0.936429 6.040652 15.632356 45.582138 42.732672 -25.582465 107.185585 18.125918 -38.231840 -22.252055 4.595897 15.241871 -4.584162 16.913027 11.430742 3.982589 -20.387370 -0.000001 -0.000002 0.000000 2.627967 -0.915034 4.886666 -1.785888 -0.099515 22.316680 -0.000001 0.000000 -0.000000 3.701251 5.993284 50.029073 -9.359888 -1.099594 110.742372 0.000002 0.000002 -0.000002 -9.681102 -5.838049 56.251259 -4.713402 8.959718 96.816764 -0.000000 -0.000003 0.000003 -16.026008 -0.641507 70.962407 -3.461383 14.022054 79.759206 -0.000003 -0.000002 -0.000000 -0.000003 -0.000001 -0.000000 0.000000 -0.000000 0.000000 0.000000 -0.000000 0.000000 0.000000 -0.000000 0.000000 0.000000 -0.000000 0.000000 0.000000 -0.000000 0.000001 -0.000001 -0.000000 0.000000 0.000000 -0.000000 0.000000 0.000000 -0.000000 0.000001 -0.000001 -0.000000 0.000000 0.000000 0.000000 0.000000 0.000000 0.000000 0.000000 -0.000000 0.000001 -0.000000 
0.845840 81.298477 66.600578 0.324773 -20.976208 2.899289 0.000000 -0.000001 0.000000 -0.127551 11.563984 -2.603951 15.252466 7.746447 -0.031752 -12.670187 14.312523 -3.163510 -0.000000 0.000000 -0.000000 -0.000000 0.000000 -0.000000 -0.000001 0.000000 0.000000 -25.152303 -5.354624 -1.732013 25.556848 -0.166007 0.937347 -9.149126 -24.132829 -3.618610 -0.000000 -0.000001 -0.000000 -0.000000 -0.000001 -0.000000 -0.000000 -0.000000 -0.000000 1.493536 -1.046747 -0.607545 2.989033 -2.073564 -0.738725 2.989032 -2.073560 -0.738725 0.743748 13.501693 0.768560 -14.158548 7.494904 0.390905 -0.000000 0.000000 -0.000000 -0.000000 0.000000 -0.000000 -0.000000 0.000000 -0.000000 -14.027667 2.424753 -8.268935 0.253466 -23.266566 -66.067832 -21.685770 -60.532989 -18.465558 -104.061135 -21.073468 15.002176 3.633587 3.330748 -3.819253 1.159601 4.335825 1.960465 0.000001 0.000000 -0.000003 8.498547 6.732178 -29.134414 -14.269088 -8.303381 -76.496343 -0.000002 -0.000001 -0.000002 3.652971 0.254587 -58.708754 -5.309420 -6.684298 -55.614283 0.000001 -0.000001 0.000000 -2.652483 6.138889 -68.884336 0.998473 -3.016875 -53.259585 0.000000 0.000000 -0.000002 -13.699895 3.483629 -81.605878 3.294571 -7.002226 -50.727716 -0.000001 0.000000 -0.000002 0.000000 0.000001 0.000002 8.592370 -0.851735 5.788846 15.464793 45.531223 42.559865 -24.781726 107.276181 17.433998 -37.891550 -22.333079 4.842991 15.242283 -4.584189 16.913579 11.431039 3.982700 -20.387589 0.000000 0.000001 -0.000002 2.626023 -0.914031 4.885002 -1.785877 -0.099511 22.316690 0.000002 0.000003 -0.000001 3.704938 5.993360 50.025245 -9.359827 -1.099075 110.742249 0.000001 0.000001 0.000002 -9.673580 -5.835753 56.251532 -4.713309 8.959460 96.816757 -0.000000 0.000004 -0.000001 -16.015952 -0.626500 70.972263 -3.461390 14.022286 79.759179 0.000001 0.000003 -0.000003 -0.000002 -0.000002 -0.000001 0.000000 0.000001 -0.000000 0.000000 0.000001 -0.000000 0.000000 0.000001 -0.000000 0.000000 0.000001 -0.000000 0.000000 0.000001 -0.000001 -0.000000 0.000001 -0.000000 0.000000 0.000001 -0.000000 0.000000 0.000001 -0.000001 -0.000000 0.000001 -0.000000 -0.000000 -0.000001 -0.000000 -0.000000 -0.000001 -0.000000 0.000000 -0.000001 0.000000 
0.113570 81.212120 68.028229 -0.004361 -20.739173 2.603353 -0.000000 0.000001 -0.000000 2.514946 12.902286 -2.217135 13.424614 7.778527 0.052180 -12.920200 12.613922 -3.911310 -0.000000 0.000000 -0.000000 -0.000000 0.000000 -0.000000 0.000001 -0.000000 -0.000000 -23.844558 -5.311815 -1.172151 24.216612 -0.063931 0.902283 -6.774860 -26.468822 -4.329588 -0.000000 0.000002 -0.000000 -0.000000 0.000002 -0.000000 0.000000 -0.000000 -0.000000 1.526278 -1.031821 -0.501545 3.056763 -2.049165 -0.512704 3.056762 -2.049162 -0.512703 0.530889 13.854078 0.545591 -14.250612 7.512976 0.313580 0.000000 -0.000000 0.000000 0.000000 -0.000000 0.000000 0.000000 -0.000000 0.000000 -14.191165 2.567188 -8.146261 0.366001 -23.165695 -66.331826 -21.700862 -60.682249 -18.635049 -104.153623 -21.273874 14.936819 3.661110 3.345244 -3.924725 1.163463 4.334451 1.957557 -0.000000 -0.000001 0.000002 8.493457 6.719423 -29.140305 -14.271780 -8.297474 -76.503713 0.000000 0.000000 -0.000003 3.668538 0.248139 -58.495939 -5.269762 -6.684630 -55.411153 0.000001 -0.000000 -0.000001 -2.612883 6.136723 -68.676521 1.007673 -2.995134 -53.047552 0.000001 -0.000000 -0.000002 -13.626974 3.467934 -81.407249 3.309307 -6.963279 -50.517261 -0.000000 0.000000 -0.000000 0.000001 -0.000000 0.000001 8.781011 -0.875880 5.500687 15.127464 45.506200 42.577668 -24.014308 107.359331 16.776821 -37.751883 -22.399119 4.937436 15.242971 -4.584124 16.914291 11.431514 3.982870 -20.387802 -0.000000 -0.000000 -0.000000 2.622717 -0.913158 4.883195 -1.785814 -0.099497 22.316677 0.000001 0.000001 -0.000002 3.708460 5.993029 50.019371 -9.359818 -1.098242 110.742201 0.000001 -0.000003 -0.000001 -9.664351 -5.833171 56.249388 -4.713248 8.959039 96.816736 -0.000002 0.000002 0.000001 -15.999804 -0.610288 70.980193 -3.461449 14.022604 79.759152 -0.000001 0.000002 -0.000001 0.000000 -0.000001 -0.000001 0.000000 0.000001 -0.000000 0.000000 0.000001 -0.000000 0.000000 0.000001 -0.000000 0.000000 0.000001 -0.000000 0.000000 0.000001 -0.000000 0.000000 0.000001 -0.000000 0.000000 0.000001 -0.000000 0.000000 0.000001 -0.000000 0.000000 0.000001 -0.000000 0.000000 -0.000001 0.000000 0.000000 -0.000001 0.000000 -0.000000 0.000001 -0.000000 
-0.658355 81.171204 69.418274 -0.525211 -20.540991 2.195468 0.000000 0.000002 0.000000 6.038067 14.682315 -1.952616 10.166140 7.780311 0.198055 -12.497986 10.564549 -4.626834 -0.000000 -0.000000 -0.000000 -0.000000 -0.000000 0.000000 0.000001 -0.000000 -0.000000 -22.259950 -5.264541 -0.534063 23.089000 0.017418 0.872223 -5.096854 -28.624947 -4.906656 -0.000000 -0.000001 -0.000000 -0.000000 -0.000001 -0.000000 -0.000000 0.000000 -0.000000 1.609852 -0.946952 -0.403747 3.225854 -1.889181 -0.290044 3.225852 -1.889175 -0.290045 0.312891 14.178009 0.224950 -14.525666 7.318858 0.241877 0.000001 -0.000000 0.000000 0.000001 -0.000000 0.000000 0.000001 -0.000000 0.000000 -14.345839 2.676954 -8.165630 0.304912 -23.071071 -66.529744 -21.645623 -60.786382 -18.734611 -104.018023 -21.331968 15.077926 3.692317 3.393890 -4.068134 1.167348 4.333038 1.954616 0.000001 -0.000002 -0.000003 8.486469 6.703832 -29.154516 -14.275927 -8.288458 -76.519415 0.000001 0.000000 -0.000005 3.678533 0.239383 -58.277339 -5.229127 -6.684733 -55.202750 0.000000 0.000000 -0.000003 -2.575071 6.132483 -68.463275 1.016962 -2.972808 -52.830284 0.000001 0.000000 -0.000002 -13.554204 3.448763 -81.203327 3.323706 -6.922921 -50.301731 -0.000001 0.000002 0.000002 0.000002 0.000001 0.000001 8.986990 -1.004817 5.182308 14.609664 45.509848 42.804205 -23.331243 107.384275 16.209197 -37.655335 -22.399986 4.999959 15.243941 -4.583936 16.915194 11.432230 3.983115 -20.388075 0.000000 0.000000 0.000002 2.618070 -0.912392 4.881234 -1.785757 -0.099489 22.316672 0.000001 -0.000000 0.000005 3.711821 5.992332 50.011475 -9.359884 -1.097094 110.742153 0.000002 0.000001 -0.000002 -9.653440 -5.830295 56.244846 -4.713198 8.958449 96.816729 0.000001 -0.000002 0.000004 -15.977527 -0.592963 70.986095 -3.461553 14.023062 79.759227 -0.000005 0.000004 -0.000001 0.000000 -0.000001 0.000001 0.000000 -0.000002 -0.000000 0.000000 -0.000002 -0.000000 0.000000 -0.000002 -0.000000 0.000000 -0.000002 -0.000000 0.000000 -0.000002 -0.000000 -0.000000 -0.000000 0.000000 0.000000 -0.000002 -0.000000 0.000000 -0.000002 -0.000000 -0.000000 -0.000000 0.000000 -0.000000 0.000000 -0.000000 -0.000000 0.000000 -0.000000 0.000000 0.000002 0.000000 
